<svg id="Logo" xmlns="http://www.w3.org/2000/svg" viewBox="0 0 575.75 317.97"><defs><style>.cls-1{fill:#fff;}</style></defs><title>White</title><path class="cls-1" d="M78.6,258.62A23.66,23.66,0,0,0,82.53,255c27.37-31.14,134.71-148.32,173.58-144.91,0,0,12.7.06,18.66,17.21,1.83,5.24,3.25,13.41,5.22,22.48,2.68,12.33,6,25.3,17.85,32.87,7.94,5.06,18.49,7.6,37.36,6.66,19.55-1,51.43-19.62,81.94-42.79,44.81-34,90.13-74.43,99.61-82.94,0,0,32.29-31.9,46.26-30.41,10,1.06,18.14,7.45,25.26,32.61a174.17,174.17,0,0,1,2.92,82C577.78,214,541,273.44,497.94,306.48a15.54,15.54,0,0,1-3.86,2.25c-9.79,3.88-19.86-3.41-14.16-13,19.63-28.44,33.89-51.13,39.17-89.88a30.33,30.33,0,0,0,.21-5.87v0a4.09,4.09,0,0,0-4.12-4.06,3.91,3.91,0,0,0-.68.06,6.93,6.93,0,0,0-3.87,1.88c-40.76,38-80.68,69.65-119.3,94.32-1.28.81-2.54,1.64-3.8,2.49-8.64,5.83-57.17,36-92.23,2.25A64.08,64.08,0,0,1,279.93,273a159.93,159.93,0,0,1-8.08-32.17c-3.45-21.85-5.13-41.51-8.13-51.68a15.51,15.51,0,0,0-1.94-4.24c-3.25-4.83-8.42-6.86-16.08-5.24-21,3.24-60.35,41.78-96.06,77.39-6.58,6.56-67.39,66.83-74.73,74.11C48.83,357,31.19,359.35,22.59,328.53,2.36,237.67,73.59,139.58,83.86,126a16.93,16.93,0,0,1,3.64-3.63c9.36-6.67,17.73,1.37,15.26,11.15a13.77,13.77,0,0,1-1,2.71C84.2,172,68.33,209.3,68.76,252,69,258.92,72.81,262.8,78.6,258.62Z" transform="translate(-18.99 -33.12)"/><path class="cls-1" d="M108.39,70.75c-10.32,12.47-11.55,28.5-2.73,35.8s20.46,2.2,34.66-9.37c15.44-12.59,23.7-31.87,7.54-40.4C138.63,51.91,118.72,58.28,108.39,70.75Z" transform="translate(-18.99 -33.12)"/></svg>